<?xml version="1.0" encoding="utf-8"?>
<!-- Generator: Adobe Illustrator 16.0.3, SVG Export Plug-In . SVG Version: 6.00 Build 0)  -->
<!DOCTYPE svg PUBLIC "-//W3C//DTD SVG 1.1//EN" "http://www.w3.org/Graphics/SVG/1.1/DTD/svg11.dtd">
<svg version="1.1" id="Layer_1" xmlns="http://www.w3.org/2000/svg" xmlns:xlink="http://www.w3.org/1999/xlink" x="0px" y="0px"
	 width="1237px" height="1266px" viewBox="0 0 1237 1266" enable-background="new 0 0 1237 1266" xml:space="preserve">
<g>
	<path fill-rule="evenodd" clip-rule="evenodd" fill="#FCFDFE" d="M0,0c412.333,0,824.667,0,1237,0c0,422,0,844,0,1266
		c-412.333,0-824.667,0-1237,0C0,844,0,422,0,0z M1207.111,944.08c0-1.797,0-3.256,0-4.716c0-150.827,0.009-301.654-0.085-452.481
		c-0.002-2.307-0.759-4.969-2.044-6.869c-39.37-58.216-86.235-109.609-140.799-153.928
		c-69.387-56.359-146.597-98.313-231.762-125.574c-48.86-15.64-98.864-25.804-149.928-30.347c-29.69-2.642-59.459-3.73-89.333-2.476
		c-36.444,1.53-72.547,5.316-108.402,12.058c-56.526,10.629-110.917,27.909-163.02,52.139
		C201.961,287.586,104.935,370.229,30.441,479.292c-1.549,2.268-2.426,5.477-2.429,8.248
		c-0.114,150.327-0.102,300.654-0.102,450.981c0,1.781,0,3.563,0,5.559C421.086,944.08,813.691,944.08,1207.111,944.08z
		 M28.135,1236.676c393.195,0,785.899,0,1178.561,0c0-87.729,0-175.134,0-262.497c-393.016,0-785.712,0-1178.561,0
		C28.135,1061.804,28.135,1149.082,28.135,1236.676z M28.109,437.548C177.611,245.218,372,138.601,617.831,138.725
		c245.648,0.124,439.921,106.888,588.923,298.826c0-135.549,0-271.932,0-408.25c-393.09,0-785.826,0-1178.645,0
		C28.109,165.879,28.109,302.126,28.109,437.548z"/>
	<path fill-rule="evenodd" clip-rule="evenodd" fill="#0092DC" d="M1207.111,944.08c-393.42,0-786.025,0-1179.2,0
		c0-1.995,0-3.777,0-5.559c0-150.327-0.013-300.654,0.102-450.981c0.002-2.771,0.88-5.98,2.429-8.248
		c74.493-109.063,171.52-191.706,291.297-247.407c52.103-24.229,106.494-41.51,163.02-52.139
		c35.855-6.742,71.958-10.527,108.402-12.058c29.874-1.254,59.643-0.166,89.333,2.476c51.063,4.543,101.067,14.707,149.928,30.347
		c85.165,27.261,162.375,69.215,231.762,125.574c54.563,44.318,101.429,95.712,140.799,153.928c1.285,1.9,2.042,4.563,2.044,6.869
		c0.094,150.827,0.085,301.654,0.085,452.481C1207.111,940.824,1207.111,942.283,1207.111,944.08z M490.008,636.018l-0.064-0.103
		c-0.417,1.711-0.677,3.479-1.279,5.122c-1.887,5.144-4.103,10.175-5.809,15.375c-1.54,4.697,0.186,8.623,4.309,11.169
		c4.099,2.53,8.125,1.639,11.368-1.673c2.428-2.479,4.545-5.301,6.563-8.138c12.931-18.175,25.734-36.44,38.73-54.567
		c3.046-4.25,6.671-8.085,10.045-12.13c3.011,4.885,5.216,9.435,8.328,13.242c3.119,3.814,7.287,6.753,10.673,10.377
		c0.881,0.942,0.993,3.092,0.713,4.543c-0.973,5.034-2.9,9.955-3.309,15.012c-0.71,8.791,4.864,16.27,13.006,17.543
		c4.156,0.649,8.618,0.219,12.813-0.491c4.152-0.701,8.141-2.368,12.201-3.611c-0.348,2.061-1.365,3.232-2.376,4.411
		c-6.935,8.09-14.199,15.923-20.732,24.325c-14.569,18.735-27.507,38.544-34.221,61.575c-1.894,6.496-2.54,13.824-1.734,20.527
		c1.14,9.471,9.972,14.518,19.001,11.296c5.347-1.907,10.486-5.113,14.92-8.719c11.495-9.351,20.047-21.305,27.725-33.85
		c16.506-26.973,28.148-56.119,38.188-85.976c0.775-2.307,1.5-5.142,3.218-6.54c16.94-13.789,34.898-26.097,54.387-36.069
		c0.32,0.278,0.641,0.557,0.962,0.835c-1.665,3.628-3.901,7.109-4.873,10.914c-1.955,7.664-4.377,15.484-4.518,23.277
		c-0.245,13.616,10.847,21.861,23.965,18.239c5.962-1.646,12.223-4.229,16.889-8.131c10.435-8.727,19.973-18.528,29.828-27.943
		c1.571-1.502,2.894-3.266,4.331-4.908c0.35,0.269,0.698,0.537,1.048,0.806c-2.414,6.456-3.685,12.961-9.82,18.133
		c-13.479,11.364-26.627,23.255-38.836,35.962c-23.23,24.177-42.831,51.002-54.867,82.684c-4.277,11.259-7.474,22.796-5.808,35.087
		c1.884,13.888,13.336,20.964,26.159,15.337c5.632-2.473,11.356-6.138,15.303-10.747c7.545-8.813,14.445-18.318,20.559-28.189
		c23.395-37.774,40.95-78.376,56.998-119.683c0.901-2.319,2.615-4.675,4.591-6.172c21.68-16.428,44.743-30.671,68.947-43.074
		c36.545-18.729,74.733-33.202,114.267-44.211c7.153-1.992,10.455-6.563,8.959-12.072c-1.58-5.819-6.726-7.966-14.173-5.865
		c-38.674,10.906-76.358,24.524-112.016,43.122c-19.148,9.987-37.532,21.443-56.261,32.236c-0.338-0.264-0.675-0.526-1.012-0.79
		c0.416-1.433,0.809-2.872,1.252-4.296c4.301-13.8,8.67-27.578,12.894-41.401c2.118-6.935-0.8-12.423-7.027-13.365
		c-4.734-0.717-7.662,1.937-10.257,5.596c-11.639,16.413-22.73,33.285-35.395,48.874c-8.84,10.883-19.733,20.143-30.085,29.722
		c-2.984,2.762-7.27,4.116-10.959,6.116c-0.563-0.406-1.127-0.813-1.69-1.219c0.836-4.115,1.272-8.363,2.58-12.323
		c5.383-16.312,15.646-29.563,26.955-42.129c4.015-4.46,4.428-8.64,1.517-12.604c-2.834-3.86-7.255-4.87-12.523-2.523
		c-7.589,3.379-15.367,6.466-22.572,10.546c-17.05,9.657-33.81,19.826-50.688,29.788c-0.282-0.259-0.565-0.518-0.848-0.776
		c-1.155-3.582-2.31-7.163-3.744-11.61c1.813-1.479,4.796-3.596,7.401-6.106c5.731-5.524,12.189-10.607,16.682-17.036
		c7.314-10.469,2.41-23.037-9.99-25.616c-6.403-1.331-13.709-0.962-20.08,0.683c-18.341,4.733-32.541,16.448-45.19,29.951
		c-7.575,8.086-14.35,16.924-22.17,26.241c-2.811-3.23-6.2-6.081-8.214-9.697c-2.804-5.037-4.7-10.602-6.759-16.025
		c-2.416-6.365-7.108-9.162-13.292-6.455c-4.464,1.954-8.397,5.23-12.338,8.221c-1.902,1.443-3.275,3.586-5.367,5.955
		c-1.248-9.366-4.998-13.433-11.197-11.957c-2.877,0.685-5.823,3.151-7.71,5.603c-15.18,19.725-31.408,38.46-50.374,54.672
		c-12.694,10.851-25.915,20.967-41.733,26.961c-3.14,1.19-6.586,1.57-9.891,2.324c-0.464-0.541-0.927-1.082-1.391-1.623
		c1.271-2.104,2.095-4.749,3.884-6.227c12.325-10.183,24.956-19.994,37.273-30.186c7.884-6.521,14.936-13.898,18.298-23.897
		c4.999-14.866-4.739-26.844-20.235-24.911c-13.136,1.639-22.389,9.696-30.436,19.316c-11.198,13.389-17.856,29.124-22.846,45.667
		c-0.558,1.85-1.042,4.285-2.406,5.239c-10.106,7.064-20.437,13.851-32.729,16.582c-5.126,1.14-7.623-0.749-7.857-6.156
		c-0.216-4.97-0.147-10.021,0.504-14.943c1.31-9.89,3.607-19.666,4.558-29.58c0.987-10.297-8.659-16.825-18.066-12.481
		c-3.697,1.706-7.364,4.183-10.075,7.185c-7.689,8.513-14.877,17.478-22.265,26.261c-0.35-0.402-0.701-0.805-1.051-1.208
		c4.619-9.207,9.211-18.428,13.867-27.616c2.87-5.662,1.114-11.843-4.22-13.821c-4.896-1.816-8.598,0.142-11.849,3.946
		c-8.983,10.511-17.904,21.089-27.246,31.277c-21.676,23.64-44.78,45.736-71.929,63.122c-12.216,7.822-24.867,15.062-39.719,16.551
		c-14.026,1.406-19.471-4.513-17.851-18.423c0.34-2.923,1.482-4.248,4.167-5.294c46.02-17.906,83.052-47.982,114.406-85.457
		c9.562-11.428,17.143-24.183,19.265-39.436c1.854-13.328-5.398-24.9-17.765-27.103c-4.632-0.824-9.712-0.601-14.347,0.336
		c-15.315,3.095-27.88,11.671-39.309,21.764c-35.371,31.238-59.66,70.365-79.458,112.644c-0.875,1.867-2.56,4.192-4.319,4.682
		c-26,7.226-52.067,9.024-78.152,0.188c-1.796-0.608-3.98-0.837-5.808-0.437c-4.404,0.962-6.92,4.115-7.138,8.524
		c-0.246,4.997,2.787,7.994,7.281,9.573c19.41,6.816,39.422,7.798,59.664,5.767c7.498-0.753,14.924-2.229,22.34-3.369
		c0.191,0.761,0.342,1.078,0.34,1.395c-0.191,22.818,15.998,36.248,39.786,32.785c13.593-1.979,25.915-7.215,37.71-13.852
		c24.749-13.924,46.004-32.312,66.043-52.218c1.299-1.29,2.68-2.498,4.022-3.743c0.479,1.757,0.208,2.856-0.071,3.953
		c-2.864,11.274-5.824,22.525-8.551,33.832c-1.141,4.732,0.523,8.598,4.971,10.854c4.53,2.299,8.475,0.967,11.628-2.676
		c2.172-2.51,4.089-5.253,5.992-7.981c13.618-19.53,27.189-39.092,40.818-58.614c1.268-1.816,2.834-3.424,4.263-5.129
		c0.642,2.661,0.137,4.766,0.078,6.884c-0.249,8.939-1.382,18.008-0.295,26.796c1.7,13.745,12.118,21.544,25.822,19.585
		c7.261-1.037,14.281-4.095,21.257-6.655c3.808-1.398,7.299-3.662,10.897-5.518c6.157,10.256,13.125,14.145,24.469,11.223
		c9.527-2.454,19.36-5.74,27.521-11.028C464.121,656.968,476.811,646.102,490.008,636.018z M832.792,746.903
		c0.478-1.965,0.612-2.593,0.783-3.21c9.983-36.058,20.001-72.105,29.903-108.186c0.821-2.992,1.496-6.271,1.142-9.288
		c-0.759-6.46-6.194-11.058-12.595-11.477c-7.329-0.48-12.678,3.464-14.871,11.34c-7.095,25.471-14.092,50.969-21.127,76.456
		c-6.503,23.563-13.063,47.11-19.483,70.696c-3.022,11.105,4.324,20.3,15.016,18.633c2.978-0.464,5.914-2.16,8.532-3.822
		c41.603-26.406,83.191-52.836,124.642-79.481c3.742-2.406,6.079-2.089,9.591,0.204c28.715,18.75,57.575,37.278,86.387,55.88
		c12.867,8.308,25.679,16.702,38.609,24.91c5.648,3.585,11.589,3.322,16.312-0.412c4.974-3.933,6.427-9.093,4.898-15.171
		c-0.325-1.29-0.651-2.58-0.982-3.868c-12.11-47.198-24.203-94.4-36.379-141.582c-0.784-3.038-0.536-5.056,2.156-7.253
		c16.521-13.479,32.851-27.195,49.258-40.816c21.919-18.196,43.858-36.369,65.771-54.574c5.883-4.887,7.682-10.188,5.65-16.255
		c-1.871-5.589-6.542-9.199-12.755-9.567c-23.945-1.417-47.896-2.753-71.843-4.145c-25.94-1.507-51.875-3.136-77.824-4.464
		c-3.851-0.197-5.337-1.813-6.616-5.117c-17.898-46.209-35.914-92.372-53.92-138.54c-2.945-7.554-7.238-10.854-13.869-10.823
		c-6.375,0.03-10.688,3.328-13.556,10.559c-3.924,9.893-7.769,19.816-11.637,29.731c-14.325,36.716-28.65,73.431-42.958,110.153
		c-0.912,2.34-1.505,4.399-4.908,4.555c-26.291,1.2-52.574,2.604-78.857,3.995c-24.453,1.295-48.905,2.61-73.354,4.011
		c-8.096,0.464-13.709,6.772-13.268,14.552c0.482,8.492,7.447,13.679,17.284,13.141c52.896-2.894,105.789-5.831,158.696-8.484
		c8.397-0.421,13.522-3.785,16.556-11.672c14.149-36.783,28.552-73.469,42.876-110.184c0.948-2.431,2.004-4.818,3.272-7.855
		c0.853,2.129,1.412,3.499,1.95,4.877c14.51,37.177,29.2,74.285,43.391,111.583c3.407,8.956,9.001,12.595,18.304,13.031
		c31.947,1.5,63.875,3.436,95.808,5.248c8.892,0.505,17.774,1.156,27.678,1.807c-1.497,1.295-2.199,1.923-2.923,2.524
		c-31.389,26.09-62.727,52.241-94.218,78.208c-6.039,4.979-7.732,10.631-5.797,18.101c10.05,38.799,19.926,77.642,29.844,116.475
		c0.368,1.438,0.557,2.923,0.996,5.289c-2.55-1.585-4.102-2.519-5.622-3.5c-32.876-21.205-65.819-42.307-98.568-63.708
		c-7.358-4.809-13.807-4.961-21.192-0.155c-21.348,13.888-42.929,27.416-64.419,41.085
		C860.952,728.989,847.35,737.644,832.792,746.903z"/>
	<path fill-rule="evenodd" clip-rule="evenodd" fill="#0193DC" d="M28.135,1236.676c0-87.594,0-174.872,0-262.497
		c392.849,0,785.545,0,1178.561,0c0,87.363,0,174.768,0,262.497C814.034,1236.676,421.33,1236.676,28.135,1236.676z
		 M263.989,1156.089c-0.369,0.071-0.738,0.143-1.107,0.213c-0.922-1.93-1.877-3.846-2.762-5.793
		c-17.407-38.301-34.789-76.613-52.268-114.881c-0.739-1.619-2.313-3.99-3.586-4.049c-8.099-0.37-16.223-0.188-24.635-0.188
		c0,49.456,0,98.33,0,147.379c5.519,0,10.769,0,16.596,0c0-42.179,0-84.121,0-126.064c2.149,2.513,3.433,5.168,4.654,7.851
		c17.364,38.137,34.708,76.283,52.126,114.396c0.69,1.51,2.036,3.813,3.154,3.86c8.06,0.333,16.14,0.178,24.198,0.178
		c0-49.51,0-98.251,0-147.307c-5.529,0-10.761,0-16.369,0C263.989,1073.301,263.989,1114.695,263.989,1156.089z M406.795,1032.178
		c0,48.852,0,97.723,0,146.483c6.337,0,12.259,0,18.635,0c0-22.603,0-44.86,0-66.891c9.59,0,18.759-0.6,27.814,0.164
		c9.512,0.803,14.813,6.333,15.841,15.765c1.045,9.592,1.092,19.289,1.984,28.902c0.597,6.434,1.744,12.833,3.034,19.168
		c0.257,1.264,2.229,3.016,3.497,3.091c5.627,0.337,11.287,0.146,16.146,0.146c-1.579-16.675-2.824-33.082-4.835-49.395
		c-0.757-6.141-2.527-12.43-5.211-17.986c-3.003-6.219-9.852-7.643-16.837-9.165c1.187-0.663,1.698-1.085,2.283-1.254
		c14.84-4.291,21.921-14.737,23.477-29.562c2.103-20.044-9.014-37.665-27.107-39.118
		C446.183,1030.976,426.629,1032.178,406.795,1032.178z M1128.438,1102.645c4.574-2.277,9.066-3.813,12.743-6.476
		c11.554-8.366,13.928-20.534,12.694-33.787c-1.672-17.962-13.234-29.473-31.07-30.486c-10.959-0.623-21.968-0.415-32.954-0.515
		c-7.125-0.065-14.25-0.013-21.469-0.013c0,49.509,0,98.505,0,147.314c6.32,0,12.243,0,18.51,0c0-11.455,0-22.586,0-33.717
		c0-11.112,0-22.225,0-33.619c1.8-0.088,3.092-0.215,4.383-0.203c7.158,0.066,14.369-0.353,21.463,0.37
		c12.387,1.261,17.626,7.311,18.39,20.054c0.418,6.979,0.503,13.988,1.166,20.942c0.725,7.598,1.776,15.178,3.093,22.694
		c0.252,1.438,2.322,3.53,3.678,3.63c5.592,0.412,11.231,0.173,17.079,0.173c-0.773-4.436-1.69-8.327-2.098-12.272
		c-1.436-13.9-2.438-27.851-4.097-41.723C1148.251,1110.813,1142.562,1105.169,1128.438,1102.645z M602.915,1070.787
		c0-4.153,0.315-7.837-0.055-11.449c-1.527-14.904-9.578-24.742-24.146-28.256c-7.207-1.738-14.808-2.52-22.231-2.53
		c-13.009-0.019-25.116,3.189-34.226,13.473c-8.189,9.244-10.865,20.519-11.044,32.388c-0.28,18.659-0.294,37.332,0.098,55.988
		c0.146,6.935,1.191,13.973,2.803,20.73c4.13,17.312,14.934,27.938,32.923,30.205c18.463,2.326,36.208-0.429,52.825-8.979
		c1.511-0.777,2.811-3.543,2.828-5.397c0.196-21.163,0.131-42.328,0.11-63.492c-0.002-1.276-0.212-2.552-0.34-3.993
		c-15.233,0-30.151,0-45.308,0c0,5.464,0,10.669,0,16.461c9.052,0,17.776,0,26.791,0c0,1.73,0,2.873,0,4.016
		c-0.001,12.498,0.106,24.999-0.15,37.493c-0.029,1.45-1.849,3.789-3.23,4.132c-7.359,1.825-14.802,4.116-22.294,4.44
		c-16.112,0.696-25.024-5.767-26.008-21.732c-1.583-25.704-1.642-51.57-0.862-77.323c0.414-13.699,10.401-21.645,24.148-22.766
		c14.102-1.151,23.928,4.685,26.861,16.172c0.854,3.35,1.134,6.847,1.7,10.42C590.343,1070.787,596.458,1070.787,602.915,1070.787z
		 M1052.912,1178.803c0-0.698,0.127-1.229-0.018-1.673c-15.467-47.603-30.93-95.207-46.566-142.754
		c-0.433-1.316-2.685-2.762-4.181-2.87c-4.974-0.359-10.009,0.134-14.982-0.221c-4.17-0.299-6.007,1.074-7.297,5.218
		c-10.722,34.453-21.736,68.815-32.642,103.212c-4.105,12.948-8.156,25.913-12.365,39.295c5.38,0,10.212-0.195,15.019,0.07
		c3.025,0.168,4.336-0.875,5.188-3.77c2.771-9.409,5.756-18.76,8.897-28.052c0.451-1.334,2.206-3.164,3.375-3.177
		c18.136-0.202,36.274-0.142,54.519-0.142c1.82,6.073,3.517,11.81,5.261,17.532c1.776,5.828,3.599,11.642,5.36,17.33
		C1039.592,1178.803,1046.21,1178.803,1052.912,1178.803z M774.47,1135.303c-5.796,0-11.556,0-17.42,0
		c0,4.568-0.33,8.889,0.058,13.145c1.546,16.957,11.271,28.453,27.423,32.091c12.246,2.758,24.53,2.33,36.477-1.695
		c11.289-3.804,18.974-11.403,22.5-22.939c5.962-19.507,0.225-37.161-16.628-48.714c-7.79-5.34-16.563-9.221-24.576-14.263
		c-6.285-3.954-12.723-8.036-17.938-13.224c-6.354-6.322-6.645-17.533-2.093-25.176c4.554-7.646,15.321-11.413,26.171-9.157
		c9.161,1.904,14.425,7.836,15.625,17.667c0.337,2.763,0.572,5.537,0.854,8.309c6.604,0,12.71,0,19.036,0
		c0-3.745,0.25-7.229-0.043-10.667c-1.418-16.617-10.909-27.692-27.185-30.688c-6.622-1.219-13.591-1.346-20.34-0.939
		c-16.694,1.002-29.991,11.362-34.39,26.026c-5.187,17.291-0.509,33.127,13.744,43.558c6.942,5.081,14.842,8.835,22.159,13.428
		c7.436,4.666,15.56,8.705,21.831,14.654c11.652,11.054,7.753,31.039-6.458,36.689c-7.14,2.839-14.575,3.287-22.029,1.03
		c-7.217-2.185-12.272-6.814-14.248-14.095C775.709,1145.579,775.322,1140.57,774.47,1135.303z M97.872,1095.212
		c0-16.14,0-31.528,0-47.453c19.096,0,37.823,0,56.573,0c0-5.618,0-10.688,0-15.854c-25.342,0-50.359,0-75.414,0
		c0,49.173,0,97.916,0,146.853c25.665,0,51.063,0,76.65,0c0-5.332,0-10.403,0-16.159c-19.438,0-38.626,0-57.84,0
		c0-17.254,0-33.82,0-51.037c17.708,0,35.081,0,52.486,0c0-5.744,0-10.825,0-16.349
		C132.733,1095.212,115.473,1095.212,97.872,1095.212z M325.699,1095.265c0-15.974,0-31.505,0-47.501c19.11,0,37.861,0,56.751,0
		c0-5.542,0-10.616,0-15.9c-25.316,0-50.343,0-75.497,0c0,49.139,0,97.891,0,146.745c25.755,0,51.273,0,76.732,0
		c0-5.36,0-10.309,0-15.878c-19.432,0-38.638,0-58.09,0c0-17.212,0-33.795,0-50.966c17.627,0,35.02,0,52.652,0
		c0-5.802,0-11.013,0-16.5C360.736,1095.265,343.604,1095.265,325.699,1095.265z M671.594,1178.838c0-2.065,0-3.701,0-5.338
		c0-15.33-0.102-30.661,0.086-45.989c0.038-3.055,0.678-6.314,1.892-9.109c11.859-27.304,23.902-54.528,35.88-81.78
		c0.643-1.46,1.17-2.97,2.063-5.253c-4.955,0-9.24,0.261-13.478-0.076c-3.903-0.311-5.806,0.954-7.345,4.753
		c-8.305,20.497-16.973,40.846-25.526,61.241c-0.593,1.412-1.275,2.786-2.274,4.956c-0.97-2.251-1.515-3.449-2.007-4.668
		c-8.35-20.658-16.668-41.33-25.089-61.96c-0.633-1.549-1.926-3.937-3.028-4.004c-6.353-0.385-12.739-0.188-19.585-0.188
		c0.959,2.368,1.545,3.91,2.201,5.421c11.724,26.999,23.522,53.965,35.099,81.027c1.39,3.249,2.167,7.001,2.224,10.536
		c0.24,14.993,0.103,29.992,0.103,44.988c0,1.761-0.001,3.521-0.001,5.442C659.251,1178.838,665.044,1178.838,671.594,1178.838z
		 M950.189,1047.994c0-5.8,0-10.887,0-16.211c-32.166,0-64.039,0-95.797,0c0,5.563,0,10.792,0,16.424c12.984,0,25.567,0,38.655,0
		c0,43.793,0,87.163,0,130.514c6.433,0,12.342,0,18.8,0c0-43.668,0-87.034,0-130.727
		C924.849,1047.994,937.302,1047.994,950.189,1047.994z"/>
	<path fill-rule="evenodd" clip-rule="evenodd" fill="#0092DC" d="M28.109,437.548c0-135.422,0-271.668,0-408.247
		c392.819,0,785.555,0,1178.645,0c0,136.318,0,272.701,0,408.25c-149.002-191.938-343.274-298.702-588.923-298.826
		C372,138.601,177.611,245.218,28.109,437.548z"/>
	<path fill-rule="evenodd" clip-rule="evenodd" fill="#FCFDFE" d="M798.305,604.305c18.729-10.793,37.112-22.249,56.261-32.236
		c35.657-18.598,73.342-32.216,112.016-43.122c7.447-2.101,12.593,0.046,14.173,5.865c1.496,5.51-1.806,10.08-8.959,12.072
		c-39.533,11.009-77.722,25.481-114.267,44.211c-24.204,12.403-47.268,26.646-68.947,43.074c-1.976,1.497-3.689,3.853-4.591,6.172
		c-16.048,41.307-33.604,81.908-56.998,119.683c-6.113,9.871-13.014,19.377-20.559,28.189c-3.946,4.609-9.671,8.274-15.303,10.747
		c-12.823,5.627-24.275-1.449-26.159-15.337c-1.666-12.291,1.53-23.828,5.808-35.087c12.036-31.682,31.637-58.507,54.867-82.684
		c12.209-12.707,25.357-24.598,38.836-35.962c6.136-5.172,7.406-11.677,9.82-18.133c-0.35-0.269-0.698-0.537-1.048-0.806
		c-1.438,1.643-2.76,3.406-4.331,4.908c-9.855,9.415-19.394,19.217-29.828,27.943c-4.666,3.902-10.927,6.484-16.889,8.131
		c-13.118,3.622-24.21-4.623-23.965-18.239c0.141-7.793,2.563-15.613,4.518-23.277c0.972-3.805,3.208-7.286,4.871-10.914
		c0.061-0.407,0.123-0.814,0.185-1.221c-0.382,0.128-0.763,0.257-1.145,0.386c-19.488,9.973-37.446,22.28-54.387,36.069
		c-1.718,1.398-2.442,4.233-3.218,6.54c-10.039,29.856-21.682,59.003-38.188,85.976c-7.678,12.545-16.229,24.499-27.725,33.85
		c-4.434,3.605-9.573,6.812-14.92,8.719c-9.029,3.222-17.861-1.825-19.001-11.296c-0.806-6.703-0.159-14.031,1.734-20.527
		c6.714-23.031,19.651-42.84,34.221-61.575c6.533-8.402,13.798-16.235,20.732-24.325c1.011-1.179,2.028-2.351,2.376-4.411
		c-4.061,1.243-8.049,2.91-12.201,3.611c-4.195,0.71-8.657,1.141-12.813,0.491c-8.142-1.273-13.716-8.752-13.006-17.543
		c0.408-5.057,2.336-9.978,3.309-15.012c0.28-1.451,0.168-3.601-0.713-4.543c-3.386-3.624-7.554-6.563-10.673-10.377
		c-3.112-3.808-5.317-8.357-8.328-13.242c-3.374,4.045-6.999,7.88-10.045,12.13c-12.996,18.127-25.8,36.393-38.73,54.567
		c-2.019,2.837-4.136,5.659-6.563,8.138c-3.243,3.312-7.27,4.203-11.368,1.673c-4.123-2.546-5.849-6.472-4.309-11.169
		c1.706-5.2,3.922-10.231,5.809-15.375c0.603-1.643,0.862-3.411,1.279-5.121c0.242-0.016,0.483-0.032,0.726-0.049
		c-0.022-0.153-0.046-0.307-0.068-0.46c-0.198,0.203-0.396,0.406-0.593,0.61c-13.197,10.084-25.887,20.95-39.783,29.955
		c-8.161,5.288-17.994,8.574-27.521,11.028c-11.344,2.922-18.312-0.967-24.469-11.223c-3.599,1.855-7.089,4.119-10.897,5.518
		c-6.977,2.561-13.996,5.618-21.257,6.655c-13.705,1.959-24.122-5.84-25.822-19.585c-1.087-8.788,0.046-17.856,0.295-26.796
		c0.059-2.118,0.563-4.223-0.078-6.884c-1.428,1.705-2.995,3.313-4.263,5.129c-13.629,19.522-27.201,39.084-40.818,58.614
		c-1.902,2.729-3.819,5.472-5.992,7.981c-3.153,3.643-7.098,4.975-11.628,2.676c-4.448-2.257-6.112-6.122-4.971-10.854
		c2.727-11.307,5.687-22.558,8.551-33.832c0.279-1.097,0.55-2.196,0.071-3.953c-1.343,1.245-2.724,2.453-4.022,3.743
		c-20.039,19.906-41.294,38.294-66.043,52.218c-11.796,6.637-24.118,11.873-37.71,13.852c-23.789,3.463-39.978-9.967-39.786-32.785
		c0.002-0.316-0.149-0.634-0.34-1.395c-7.417,1.14-14.842,2.616-22.34,3.369c-20.242,2.031-40.254,1.05-59.664-5.767
		c-4.495-1.579-7.527-4.576-7.281-9.573c0.217-4.409,2.734-7.563,7.138-8.524c1.828-0.4,4.012-0.172,5.808,0.437
		c26.085,8.837,52.152,7.038,78.152-0.188c1.759-0.489,3.444-2.814,4.319-4.682c19.798-42.278,44.087-81.405,79.458-112.644
		c11.429-10.093,23.994-18.669,39.309-21.764c4.635-0.937,9.715-1.16,14.347-0.336c12.366,2.202,19.619,13.774,17.765,27.103
		c-2.123,15.253-9.704,28.008-19.265,39.436c-31.354,37.475-68.387,67.551-114.406,85.457c-2.686,1.046-3.827,2.371-4.167,5.294
		c-1.621,13.91,3.825,19.829,17.851,18.423c14.853-1.489,27.503-8.729,39.719-16.551c27.148-17.386,50.253-39.482,71.929-63.122
		c9.341-10.188,18.262-20.767,27.246-31.277c3.251-3.805,6.953-5.763,11.849-3.946c5.333,1.979,7.089,8.159,4.22,13.821
		c-4.656,9.188-9.248,18.409-13.867,27.617c-0.295,0.708-0.59,1.415-0.885,2.122c-0.279,0.632-0.558,1.263-0.837,1.894
		c0.191,0.099,0.382,0.196,0.573,0.295c0.369-0.487,0.738-0.974,1.105-1.462c0.364-0.546,0.73-1.093,1.097-1.639
		c7.385-8.786,14.574-17.751,22.263-26.264c2.711-3.002,6.378-5.479,10.075-7.185c9.408-4.344,19.054,2.185,18.066,12.481
		c-0.951,9.914-3.248,19.69-4.558,29.58c-0.652,4.922-0.72,9.974-0.504,14.943c0.235,5.407,2.731,7.296,7.857,6.156
		c12.292-2.731,22.623-9.518,32.729-16.582c1.364-0.954,1.848-3.39,2.406-5.239c4.99-16.543,11.648-32.278,22.846-45.667
		c8.046-9.62,17.299-17.678,30.436-19.316c15.496-1.933,25.234,10.045,20.235,24.911c-3.363,9.999-10.414,17.376-18.298,23.897
		c-12.318,10.191-24.949,20.003-37.273,30.186c-1.789,1.478-2.613,4.122-3.884,6.227c0.464,0.541,0.927,1.082,1.391,1.623
		c3.305-0.754,6.751-1.134,9.891-2.324c15.818-5.994,29.04-16.11,41.733-26.961c18.965-16.212,35.194-34.947,50.374-54.672
		c1.887-2.451,4.833-4.918,7.71-5.603c6.199-1.476,9.949,2.591,11.197,11.957c2.092-2.369,3.465-4.512,5.367-5.955
		c3.94-2.99,7.874-6.267,12.338-8.221c6.184-2.707,10.876,0.09,13.292,6.455c2.059,5.424,3.955,10.988,6.759,16.025
		c2.014,3.616,5.403,6.467,8.214,9.697c7.82-9.317,14.595-18.155,22.17-26.241c12.649-13.503,26.85-25.218,45.19-29.951
		c6.371-1.645,13.677-2.014,20.08-0.683c12.4,2.579,17.305,15.147,9.99,25.616c-4.492,6.429-10.95,11.512-16.682,17.036
		c-2.605,2.511-5.589,4.628-7.401,6.106c1.435,4.447,2.589,8.028,3.747,11.611c-0.046,0.4-0.095,0.8-0.143,1.199
		c0.329-0.142,0.658-0.283,0.987-0.424c16.878-9.962,33.638-20.131,50.688-29.788c7.205-4.08,14.983-7.167,22.572-10.546
		c5.269-2.347,9.689-1.337,12.523,2.523c2.911,3.965,2.498,8.145-1.517,12.604c-11.31,12.566-21.572,25.817-26.955,42.129
		c-1.308,3.96-1.744,8.208-2.58,12.323c0.563,0.406,1.127,0.813,1.69,1.219c3.689-2,7.975-3.354,10.959-6.116
		c10.352-9.579,21.245-18.839,30.085-29.722c12.664-15.589,23.756-32.461,35.395-48.874c2.595-3.659,5.522-6.313,10.257-5.596
		c6.228,0.942,9.146,6.431,7.027,13.365c-4.224,13.823-8.593,27.602-12.894,41.401c-0.443,1.424-0.836,2.863-1.25,4.296
		c-0.014,0.413-0.029,0.826-0.044,1.238C797.603,604.604,797.953,604.454,798.305,604.305z M752.851,664.844
		c-17.267,15.572-32.125,33.219-45.023,52.525c-10.306,15.428-19.078,31.628-23.324,49.863c-1.085,4.662-1.12,9.57-1.758,15.473
		c9.28-4.081,13.992-10.568,18.506-17.091c21.591-31.199,37.807-65.229,52.368-100.115c0.051-0.416,0.103-0.831,0.153-1.247
		C753.465,664.449,753.157,664.646,752.851,664.844z M163.636,654.207c0.33,0.383,0.659,0.766,0.989,1.147
		c8.042-4.579,16.324-8.787,24.082-13.805c27.744-17.944,52.748-39.056,72.113-66.065c4.745-6.618,8.094-14.505,10.763-22.264
		c2.479-7.203-0.922-10.655-8.184-8.39c-7.345,2.292-14.742,5.377-21.125,9.609c-17.976,11.92-31.934,28.07-44.776,45.201
		C184.604,616.84,173.512,635.151,163.636,654.207z M567.291,749.317c27.146-22.013,40.063-52.91,52.533-84.088
		C596.607,689.671,576.011,715.753,567.291,749.317z M662.844,560.797c-24.185,3.75-39.646,19.926-53.854,37.871
		C630.24,590.805,647.027,576.542,662.844,560.797z M623.962,615.024c-10.145,2.012-19.818,3.92-29.483,5.874
		c-0.576,0.116-1.385,0.484-1.565,0.941c-1.526,3.847-2.932,7.742-4.758,12.658C602.934,630.778,613.532,623.011,623.962,615.024z
		 M428.396,620.024c10.144-8.767,22.586-15.311,28.025-28.561C441.87,595.915,434.645,607.51,428.396,620.024z M609.727,647.499
		c-0.105-0.112-0.211-0.225-0.316-0.337c-0.11,0.107-0.221,0.215-0.331,0.322c0.159,0.114,0.318,0.229,0.478,0.343
		C609.613,647.718,609.67,647.608,609.727,647.499z M282.467,649.887l0.176-0.356l-0.304-0.02L282.467,649.887z"/>
	<path fill-rule="evenodd" clip-rule="evenodd" fill="#FCFDFE" d="M832.792,746.903c14.558-9.26,28.16-17.914,41.764-26.567
		c21.49-13.669,43.071-27.197,64.419-41.085c7.386-4.806,13.834-4.653,21.192,0.155c32.749,21.401,65.692,42.503,98.568,63.708
		c1.521,0.981,3.072,1.915,5.622,3.5c-0.439-2.366-0.628-3.851-0.996-5.289c-9.918-38.833-19.794-77.676-29.844-116.475
		c-1.936-7.47-0.242-13.121,5.797-18.101c31.491-25.967,62.829-52.118,94.218-78.208c0.724-0.602,1.426-1.229,2.923-2.524
		c-9.903-0.65-18.786-1.302-27.678-1.807c-31.933-1.813-63.86-3.748-95.808-5.248c-9.303-0.437-14.896-4.075-18.304-13.031
		c-14.19-37.298-28.881-74.406-43.391-111.583c-0.538-1.378-1.098-2.748-1.95-4.877c-1.269,3.037-2.324,5.425-3.272,7.855
		c-14.324,36.715-28.727,73.4-42.876,110.184c-3.033,7.887-8.158,11.251-16.556,11.672c-52.907,2.653-105.801,5.591-158.696,8.484
		c-9.837,0.538-16.802-4.648-17.284-13.141c-0.441-7.779,5.172-14.088,13.268-14.552c24.448-1.4,48.9-2.716,73.354-4.011
		c26.283-1.392,52.566-2.795,78.857-3.995c3.403-0.155,3.996-2.215,4.908-4.555c14.308-36.723,28.633-73.438,42.958-110.153
		c3.868-9.915,7.713-19.839,11.637-29.731c2.867-7.23,7.181-10.528,13.556-10.559c6.631-0.031,10.924,3.27,13.869,10.823
		c18.006,46.168,36.021,92.331,53.92,138.54c1.279,3.305,2.766,4.92,6.616,5.117c25.949,1.328,51.884,2.957,77.824,4.464
		c23.947,1.392,47.897,2.728,71.843,4.145c6.213,0.368,10.884,3.979,12.755,9.567c2.031,6.066,0.232,11.368-5.65,16.255
		c-21.913,18.205-43.853,36.378-65.771,54.574c-16.407,13.621-32.736,27.337-49.258,40.816c-2.692,2.197-2.94,4.215-2.156,7.253
		c12.176,47.182,24.269,94.384,36.379,141.582c0.331,1.288,0.657,2.578,0.982,3.868c1.528,6.078,0.075,11.238-4.898,15.171
		c-4.723,3.734-10.663,3.997-16.312,0.412c-12.931-8.208-25.742-16.603-38.609-24.91c-28.812-18.602-57.672-37.13-86.387-55.88
		c-3.512-2.293-5.849-2.61-9.591-0.204c-41.45,26.646-83.039,53.075-124.642,79.481c-2.618,1.662-5.555,3.358-8.532,3.822
		c-10.691,1.667-18.038-7.527-15.016-18.633c6.42-23.586,12.98-47.133,19.483-70.696c7.035-25.487,14.032-50.985,21.127-76.456
		c2.193-7.876,7.542-11.82,14.871-11.34c6.4,0.419,11.836,5.017,12.595,11.477c0.354,3.017-0.32,6.296-1.142,9.288
		c-9.902,36.08-19.92,72.128-29.903,108.186C833.404,744.311,833.27,744.938,832.792,746.903z"/>
	<path fill-rule="evenodd" clip-rule="evenodd" fill="#F8FBFD" d="M263.989,1156.089c0-41.394,0-82.788,0-124.406
		c5.608,0,10.84,0,16.369,0c0,49.056,0,97.797,0,147.307c-8.058,0-16.138,0.155-24.198-0.178c-1.118-0.047-2.463-2.351-3.154-3.86
		c-17.418-38.112-34.762-76.259-52.126-114.396c-1.222-2.683-2.505-5.338-4.654-7.851c0,41.943,0,83.886,0,126.064
		c-5.827,0-11.077,0-16.596,0c0-49.049,0-97.923,0-147.379c8.413,0,16.537-0.182,24.635,0.188c1.274,0.059,2.847,2.43,3.586,4.049
		c17.479,38.268,34.861,76.58,52.268,114.881c0.885,1.947,1.84,3.863,2.762,5.793C263.251,1156.231,263.62,1156.16,263.989,1156.089
		z"/>
	<path fill-rule="evenodd" clip-rule="evenodd" fill="#F8FBFD" d="M406.795,1032.178c19.833,0,39.388-1.202,58.721,0.35
		c18.093,1.453,29.209,19.074,27.107,39.118c-1.556,14.824-8.637,25.271-23.477,29.562c-0.585,0.169-1.096,0.591-2.283,1.254
		c6.986,1.522,13.834,2.946,16.837,9.165c2.684,5.557,4.454,11.846,5.211,17.986c2.011,16.313,3.256,32.72,4.835,49.395
		c-4.859,0-10.519,0.19-16.146-0.146c-1.268-0.075-3.239-1.827-3.497-3.091c-1.291-6.335-2.438-12.734-3.034-19.168
		c-0.892-9.613-0.939-19.311-1.984-28.902c-1.027-9.432-6.329-14.962-15.841-15.765c-9.055-0.764-18.224-0.164-27.814-0.164
		c0,22.03,0,44.288,0,66.891c-6.375,0-12.297,0-18.635,0C406.795,1129.9,406.795,1081.029,406.795,1032.178z M425.555,1048.189
		c0,15.658,0,31.036,0,46.723c9.34,0,18.322,0.062,27.302-0.016c10.382-0.09,17.32-6.086,19.812-16.952
		c2.776-12.112-1.343-23.818-9.954-28.008c-1.626-0.791-3.443-1.646-5.184-1.67C446.921,1048.112,436.308,1048.189,425.555,1048.189
		z"/>
	<path fill-rule="evenodd" clip-rule="evenodd" fill="#F8FBFD" d="M1128.438,1102.645c14.124,2.524,19.813,8.168,21.511,22.367
		c1.658,13.872,2.661,27.822,4.097,41.723c0.407,3.945,1.324,7.837,2.098,12.272c-5.848,0-11.487,0.239-17.079-0.173
		c-1.355-0.1-3.426-2.192-3.678-3.63c-1.316-7.517-2.368-15.097-3.093-22.694c-0.663-6.954-0.748-13.963-1.166-20.942
		c-0.764-12.743-6.003-18.793-18.39-20.054c-7.094-0.723-14.305-0.304-21.463-0.37c-1.291-0.012-2.583,0.115-4.383,0.203
		c0,11.395,0,22.507,0,33.619c0,11.131,0,22.262,0,33.717c-6.267,0-12.189,0-18.51,0c0-48.81,0-97.806,0-147.314
		c7.219,0,14.344-0.053,21.469,0.013c10.986,0.1,21.995-0.108,32.954,0.515c17.836,1.014,29.398,12.524,31.07,30.486
		c1.233,13.253-1.141,25.421-12.694,33.787C1137.504,1098.831,1133.012,1100.367,1128.438,1102.645z M1087.294,1048.056
		c0,15.905,0,31.264,0,46.828c9.871,0,19.35,0.234,28.81-0.076c7.228-0.237,13.218-3.821,15.582-10.587
		c2.02-5.778,3.222-12.321,2.772-18.377c-0.77-10.382-7.521-17.235-16.524-17.675
		C1107.831,1047.676,1097.687,1048.056,1087.294,1048.056z"/>
	<path fill-rule="evenodd" clip-rule="evenodd" fill="#F8FBFD" d="M602.915,1070.787c-6.457,0-12.572,0-18.807,0
		c-0.566-3.573-0.846-7.07-1.7-10.42c-2.934-11.487-12.76-17.323-26.861-16.172c-13.747,1.121-23.734,9.066-24.148,22.766
		c-0.779,25.753-0.721,51.619,0.862,77.323c0.983,15.966,9.896,22.429,26.008,21.732c7.492-0.324,14.935-2.615,22.294-4.44
		c1.382-0.343,3.201-2.682,3.23-4.132c0.257-12.494,0.149-24.995,0.15-37.493c0-1.143,0-2.285,0-4.016c-9.015,0-17.739,0-26.791,0
		c0-5.792,0-10.997,0-16.461c15.156,0,30.074,0,45.308,0c0.128,1.441,0.338,2.717,0.34,3.993c0.021,21.164,0.086,42.329-0.11,63.492
		c-0.018,1.854-1.317,4.62-2.828,5.397c-16.617,8.55-34.362,11.305-52.825,8.979c-17.989-2.268-28.793-12.894-32.923-30.205
		c-1.611-6.758-2.657-13.796-2.803-20.73c-0.392-18.656-0.378-37.329-0.098-55.988c0.179-11.869,2.854-23.144,11.044-32.388
		c9.109-10.283,21.217-13.491,34.226-13.473c7.424,0.011,15.024,0.792,22.231,2.53c14.568,3.514,22.619,13.352,24.146,28.256
		C603.23,1062.95,602.915,1066.634,602.915,1070.787z"/>
	<path fill-rule="evenodd" clip-rule="evenodd" fill="#F8FBFD" d="M1052.912,1178.803c-6.702,0-13.32,0-20.432,0
		c-1.762-5.688-3.584-11.502-5.36-17.33c-1.744-5.723-3.44-11.459-5.261-17.532c-18.244,0-36.383-0.061-54.519,0.142
		c-1.169,0.013-2.924,1.843-3.375,3.177c-3.142,9.292-6.126,18.643-8.897,28.052c-0.853,2.895-2.163,3.938-5.188,3.77
		c-4.807-0.266-9.639-0.07-15.019-0.07c4.209-13.382,8.26-26.347,12.365-39.295c10.905-34.396,21.92-68.759,32.642-103.212
		c1.29-4.144,3.127-5.517,7.297-5.218c4.974,0.354,10.009-0.139,14.982,0.221c1.496,0.108,3.748,1.554,4.181,2.87
		c15.637,47.547,31.1,95.151,46.566,142.754C1053.039,1177.573,1052.912,1178.104,1052.912,1178.803z M992.813,1048.222
		c-7.979,27.243-15.512,52.956-23.143,79.007c15.86,0,31.05,0,46.951,0C1008.723,1101.016,1000.985,1075.339,992.813,1048.222z"/>
	<path fill-rule="evenodd" clip-rule="evenodd" fill="#F8FBFD" d="M774.47,1135.303c0.853,5.268,1.239,10.276,2.531,15.039
		c1.976,7.28,7.031,11.91,14.248,14.095c7.454,2.257,14.89,1.809,22.029-1.03c14.211-5.65,18.11-25.636,6.458-36.689
		c-6.271-5.949-14.396-9.988-21.831-14.654c-7.317-4.593-15.217-8.347-22.159-13.428c-14.253-10.431-18.931-26.267-13.744-43.558
		c4.398-14.664,17.695-25.024,34.39-26.026c6.749-0.406,13.718-0.279,20.34,0.939c16.275,2.996,25.767,14.071,27.185,30.688
		c0.293,3.438,0.043,6.922,0.043,10.667c-6.326,0-12.433,0-19.036,0c-0.282-2.771-0.518-5.546-0.854-8.309
		c-1.2-9.831-6.464-15.763-15.625-17.667c-10.85-2.256-21.617,1.512-26.171,9.157c-4.552,7.643-4.262,18.854,2.093,25.176
		c5.215,5.188,11.652,9.27,17.938,13.224c8.013,5.042,16.786,8.923,24.576,14.263c16.853,11.553,22.59,29.207,16.628,48.714
		c-3.526,11.536-11.211,19.136-22.5,22.939c-11.946,4.025-24.23,4.453-36.477,1.695c-16.152-3.638-25.877-15.134-27.423-32.091
		c-0.388-4.256-0.058-8.576-0.058-13.145C762.914,1135.303,768.674,1135.303,774.47,1135.303z"/>
	<path fill-rule="evenodd" clip-rule="evenodd" fill="#FCFDFE" d="M97.872,1095.212c17.602,0,34.861,0,52.456,0
		c0,5.523,0,10.604,0,16.349c-17.405,0-34.779,0-52.486,0c0,17.217,0,33.783,0,51.037c19.214,0,38.402,0,57.84,0
		c0,5.756,0,10.827,0,16.159c-25.587,0-50.985,0-76.65,0c0-48.937,0-97.68,0-146.853c25.055,0,50.072,0,75.414,0
		c0,5.167,0,10.236,0,15.854c-18.75,0-37.477,0-56.573,0C97.872,1063.684,97.872,1079.072,97.872,1095.212z"/>
	<path fill-rule="evenodd" clip-rule="evenodd" fill="#FCFDFE" d="M325.699,1095.265c17.904,0,35.037,0,52.548,0
		c0,5.487,0,10.698,0,16.5c-17.632,0-35.025,0-52.652,0c0,17.171,0,33.754,0,50.966c19.452,0,38.658,0,58.09,0
		c0,5.569,0,10.518,0,15.878c-25.458,0-50.977,0-76.732,0c0-48.854,0-97.606,0-146.745c25.154,0,50.181,0,75.497,0
		c0,5.284,0,10.358,0,15.9c-18.89,0-37.641,0-56.751,0C325.699,1063.76,325.699,1079.291,325.699,1095.265z"/>
	<path fill-rule="evenodd" clip-rule="evenodd" fill="#F8FBFD" d="M671.594,1178.838c-6.55,0-12.343,0-18.787,0
		c0-1.921,0.001-3.682,0.001-5.442c0-14.996,0.138-29.995-0.103-44.988c-0.057-3.535-0.834-7.287-2.224-10.536
		c-11.576-27.063-23.375-54.028-35.099-81.027c-0.656-1.511-1.242-3.053-2.201-5.421c6.846,0,13.232-0.197,19.585,0.188
		c1.103,0.067,2.396,2.455,3.028,4.004c8.421,20.63,16.739,41.302,25.089,61.96c0.492,1.219,1.037,2.417,2.007,4.668
		c0.999-2.17,1.682-3.544,2.274-4.956c8.554-20.396,17.222-40.744,25.526-61.241c1.539-3.799,3.441-5.063,7.345-4.753
		c4.237,0.337,8.522,0.076,13.478,0.076c-0.893,2.283-1.42,3.793-2.063,5.253c-11.978,27.252-24.021,54.477-35.88,81.78
		c-1.214,2.795-1.854,6.055-1.892,9.109c-0.188,15.328-0.086,30.659-0.086,45.989
		C671.594,1175.137,671.594,1176.772,671.594,1178.838z"/>
	<path fill-rule="evenodd" clip-rule="evenodd" fill="#F8FBFD" d="M950.189,1047.994c-12.888,0-25.341,0-38.342,0
		c0,43.692,0,87.059,0,130.727c-6.458,0-12.367,0-18.8,0c0-43.351,0-86.721,0-130.514c-13.088,0-25.671,0-38.655,0
		c0-5.632,0-10.86,0-16.424c31.758,0,63.631,0,95.797,0C950.189,1037.107,950.189,1042.194,950.189,1047.994z"/>
	<path fill-rule="evenodd" clip-rule="evenodd" fill="#0193DC" d="M163.636,654.207c9.876-19.056,20.969-37.367,33.862-54.565
		c12.842-17.131,26.8-33.281,44.776-45.201c6.383-4.232,13.78-7.317,21.125-9.609c7.262-2.266,10.662,1.187,8.184,8.39
		c-2.669,7.759-6.019,15.646-10.763,22.264c-19.365,27.01-44.369,48.121-72.113,66.065c-7.758,5.018-16.04,9.226-24.082,13.805
		C164.295,654.973,163.965,654.59,163.636,654.207z"/>
	<path fill-rule="evenodd" clip-rule="evenodd" fill="#0193DC" d="M753.624,665.5c-14.566,34.885-30.782,68.915-52.373,100.114
		c-4.514,6.522-9.226,13.01-18.506,17.091c0.638-5.902,0.673-10.811,1.758-15.473c4.246-18.235,13.019-34.436,23.324-49.863
		c12.898-19.307,27.757-36.953,45.023-52.525C753.108,665.063,753.366,665.281,753.624,665.5z"/>
	<path fill-rule="evenodd" clip-rule="evenodd" fill="#0193DC" d="M567.291,749.317c8.72-33.564,29.316-59.646,52.533-84.088
		C607.354,696.407,594.438,727.305,567.291,749.317z"/>
	<path fill-rule="evenodd" clip-rule="evenodd" fill="#0193DC" d="M662.844,560.797c-15.816,15.745-32.604,30.008-53.854,37.871
		C623.198,580.723,638.659,564.547,662.844,560.797z"/>
	<path fill-rule="evenodd" clip-rule="evenodd" fill="#0193DC" d="M623.962,615.024c-10.43,7.986-21.028,15.754-35.807,19.474
		c1.826-4.916,3.231-8.812,4.758-12.658c0.181-0.457,0.989-0.825,1.565-0.941C604.144,618.944,613.817,617.036,623.962,615.024z"/>
	<path fill-rule="evenodd" clip-rule="evenodd" fill="#0193DC" d="M428.396,620.024c6.249-12.515,13.474-24.109,28.025-28.561
		C450.982,604.714,438.54,611.258,428.396,620.024z"/>
	<path fill-rule="evenodd" clip-rule="evenodd" fill="#0092DC" d="M311.598,631.513c-0.369,0.487-0.738,0.974-1.106,1.461
		c-0.191-0.099-0.382-0.196-0.573-0.295c0.279-0.631,0.558-1.262,0.837-1.894C311.037,631.028,311.317,631.271,311.598,631.513z"/>
	<path fill-rule="evenodd" clip-rule="evenodd" fill="#0092DC" d="M310.756,630.785c0.295-0.707,0.59-1.414,0.885-2.122
		c0.35,0.402,0.701,0.805,1.052,1.209c-0.365,0.547-0.731,1.094-1.096,1.64C311.317,631.271,311.037,631.028,310.756,630.785z"/>
	<path fill-rule="evenodd" clip-rule="evenodd" fill="#0092DC" d="M798.305,604.305c-0.352,0.149-0.702,0.299-1.054,0.448
		c0.015-0.412,0.03-0.825,0.044-1.238C797.63,603.778,797.967,604.041,798.305,604.305z"/>
	<path fill-rule="evenodd" clip-rule="evenodd" fill="#0092DC" d="M661.294,604.295c-0.329,0.141-0.658,0.282-0.987,0.424
		c0.048-0.399,0.097-0.799,0.143-1.199C660.729,603.777,661.012,604.036,661.294,604.295z"/>
	<path fill-rule="evenodd" clip-rule="evenodd" fill="#0092DC" d="M706.671,598.669c0.382-0.129,0.763-0.258,1.145-0.386
		c-0.062,0.406-0.124,0.813-0.185,1.221C707.312,599.226,706.991,598.947,706.671,598.669z"/>
	<path fill-rule="evenodd" clip-rule="evenodd" fill="#0092DC" d="M609.727,647.499c-0.057,0.109-0.113,0.219-0.17,0.328
		c-0.159-0.114-0.318-0.229-0.478-0.343c0.11-0.107,0.221-0.215,0.331-0.322C609.516,647.274,609.621,647.387,609.727,647.499z"/>
	<polygon fill-rule="evenodd" clip-rule="evenodd" fill="#0092DC" points="282.467,649.887 282.339,649.511 282.643,649.53 	"/>
	<path fill-rule="evenodd" clip-rule="evenodd" fill="#0092DC" d="M490.008,636.018c0.197-0.204,0.395-0.407,0.593-0.61
		c0.022,0.153,0.046,0.307,0.068,0.46c-0.242,0.017-0.483,0.033-0.726,0.049C489.943,635.915,490.008,636.018,490.008,636.018z"/>
	<path fill-rule="evenodd" clip-rule="evenodd" fill="#0193DC" d="M752.851,664.844c0.307-0.197,0.614-0.395,0.922-0.592
		c-0.051,0.416-0.103,0.831-0.15,1.247C753.366,665.281,753.108,665.063,752.851,664.844z"/>
	<path fill-rule="evenodd" clip-rule="evenodd" fill="#0193DC" d="M425.555,1048.189c10.753,0,21.367-0.077,31.977,0.077
		c1.741,0.024,3.558,0.879,5.184,1.67c8.611,4.189,12.73,15.896,9.954,28.008c-2.492,10.866-9.43,16.862-19.812,16.952
		c-8.98,0.077-17.962,0.016-27.302,0.016C425.555,1079.226,425.555,1063.848,425.555,1048.189z"/>
	<path fill-rule="evenodd" clip-rule="evenodd" fill="#0193DC" d="M1087.294,1048.056c10.393,0,20.537-0.38,30.64,0.113
		c9.004,0.439,15.755,7.293,16.524,17.675c0.449,6.056-0.753,12.599-2.772,18.377c-2.364,6.766-8.354,10.35-15.582,10.587
		c-9.46,0.311-18.938,0.076-28.81,0.076C1087.294,1079.319,1087.294,1063.961,1087.294,1048.056z"/>
	<path fill-rule="evenodd" clip-rule="evenodd" fill="#0193DC" d="M992.813,1048.222c8.172,27.117,15.909,52.794,23.809,79.007
		c-15.901,0-31.091,0-46.951,0C977.302,1101.178,984.834,1075.465,992.813,1048.222z"/>
</g>
</svg>
