<?xml version="1.0" encoding="utf-8"?>
<!-- Generator: Adobe Illustrator 16.0.3, SVG Export Plug-In . SVG Version: 6.00 Build 0)  -->
<!DOCTYPE svg PUBLIC "-//W3C//DTD SVG 1.1//EN" "http://www.w3.org/Graphics/SVG/1.1/DTD/svg11.dtd">
<svg version="1.1" id="Layer_1" xmlns="http://www.w3.org/2000/svg" xmlns:xlink="http://www.w3.org/1999/xlink" x="0px" y="0px"
	 width="960px" height="767.708px" viewBox="0 0 960 767.708" enable-background="new 0 0 960 767.708" xml:space="preserve">
<path fill-rule="evenodd" clip-rule="evenodd" fill="#F4F4F4" d="M959.894,255.208c-7.338,0.348-12.608,0.81-17.88,0.822
	c-33.303,0.089-66.605,0.021-99.906,0.128c-20.373,0.065-20.86,0.521-20.867,21.466c-0.039,134.847-0.013,269.69-0.013,404.538
	c0,21.841,0.079,43.677-0.048,65.515c-0.118,19.174-1.071,20.008-20.653,20.008c-144.13-0.006-288.255-0.03-432.385-0.033
	c-66.605,0-133.208,0.039-199.812,0.057c-3.279,0-6.551-0.041-9.823-0.029c-8.211,0.015-11.836-4.371-11.896-12.264
	c-0.047-6.005-0.207-12.008-0.207-18.01c-0.014-151.226-0.014-302.453-0.021-453.678c0-27.525-0.013-27.561-28.077-27.608
	c-33.848-0.054-67.697,0-101.539-0.092c-4.731-0.018-9.457-0.62-16.767-1.125c3.179-4.904,4.452-8.5,6.998-10.436
	c5.185-3.933,10.876-7.306,16.662-10.328c88.536-46.216,177.159-92.275,265.688-138.512C347.396,65.305,405.448,34.99,463.202,4.119
	c10.91-5.83,19.314-5.306,30.284,0.53c52.988,28.189,106.57,55.241,159.879,82.828c60.592,31.357,121.112,62.854,181.659,94.285
	c35.361,18.355,70.763,36.629,106.049,55.119C948.058,240.539,956.328,243.093,959.894,255.208z M758.269,508.497
	c-0.014,0-0.026,0-0.04,0c0-60.582,0.073-121.166-0.046-181.748c-0.034-16.673-1.273-17.908-17.581-17.962
	c-46.391-0.146-92.783-0.158-139.174-0.026c-18.612,0.053-19.905,1.271-19.919,19.232c-0.094,120.07-0.087,240.147-0.014,360.222
	c0.014,18.927,1.181,19.969,20.834,20.017c43.665,0.106,87.329,0.098,130.988,0.023c24.432-0.042,24.925-0.557,24.938-24.56
	C758.302,625.296,758.269,566.899,758.269,508.497z M218.632,388.969c0,22.916-0.24,45.828,0.1,68.741
	c0.18,12.439,2.319,14.818,14.122,14.979c27.277,0.365,54.561,0.362,81.831,0.006c11.909-0.152,14.288-2.498,14.369-14.795
	c0.294-45.828,0.314-91.654,0.007-137.484c-0.073-11.739-2.833-14.184-14.949-14.354c-26.191-0.366-52.381-0.435-78.566-0.137
	c-14.715,0.167-16.654,2.316-16.848,17.572C218.419,345.318,218.625,367.145,218.632,388.969z M329.253,626.213
	c-0.019,0-0.039,0-0.06,0c0-22.365,0.207-44.737-0.073-67.1c-0.18-15.16-2.212-17.25-16.961-17.426
	c-25.09-0.298-50.19-0.346-75.28-0.125c-16.067,0.146-18.101,2.045-18.181,17.953c-0.226,44.186-0.213,88.375,0.007,132.563
	c0.073,14.231,2.046,16.164,16.108,16.315c25.638,0.277,51.283,0.229,76.915,0.003c15.854-0.14,17.307-1.718,17.481-18.357
	C329.42,668.768,329.253,647.488,329.253,626.213z M506.842,388.766c0.1,0,0.193,0,0.293,0c0-22.359-0.207-44.719,0.072-67.072
	c0.187-14.714-0.006-15.559-15.401-15.729c-25.077-0.277-50.17-0.298-75.253-0.012c-15.708,0.182-17.395,1.977-17.468,18.497
	c-0.194,43.63-0.207,87.256-0.033,130.884c0.06,15.548,1.712,17.245,16.68,17.411c24.539,0.274,49.083,0.277,73.621,0
	c15.622-0.175,17.274-2.039,17.436-18.533C507.001,432.397,506.842,410.58,506.842,388.766z M506.807,624.748
	c0-22.351,0.194-44.707-0.072-67.058c-0.167-13.621-1.953-15.731-14.762-15.907c-26.164-0.363-52.342-0.369-78.5,0.026
	c-11.802,0.185-14.188,2.626-14.269,14.938c-0.307,45.79-0.319,91.584-0.06,137.378c0.067,12.129,2.16,14.025,14.748,14.192
	c25.618,0.343,51.243,0.349,76.862,0.026c13.9-0.172,15.8-2.229,15.986-16.541C507.035,669.458,506.82,647.102,506.807,624.748z"/>
</svg>
